<svg width="330" height="70" viewBox="0 0 330 70" fill="none" xmlns="http://www.w3.org/2000/svg">
<g clip-path="url(#clip0_133_707)">
<path d="M93.3496 50.4848V14.8943H100.825V44.0696H119.01V50.4848H93.3496Z" fill="black"/>
<path d="M119.959 36.8734C119.959 28.3941 125.035 22.6483 134.296 22.6483C142.886 22.6483 148.298 28.1152 148.298 36.5387V38.4353H127.044C127.601 42.4518 129.944 45.1853 134.575 45.1853C138.647 45.1853 140.432 43.6233 141.101 41.5035H148.13C147.405 47.0819 142.663 51.0984 134.742 51.0984C125.314 51.0984 119.959 45.6873 119.959 36.8734ZM140.934 33.5821C140.097 30.4581 138.424 28.3383 134.296 28.3383C130.168 28.3383 128.327 30.4581 127.49 33.5821H140.934Z" fill="black"/>
<path d="M152.314 62.9805V56.6769H163.192C166.818 56.6769 170.778 56.0075 170.778 49.8154V46.1894C168.435 49.4249 164.754 51.0426 161.072 51.0426C152.369 51.0426 149.971 43.9022 149.971 37.3754V23.2062H156.888V37.3197C156.888 41.4477 158.562 44.6832 163.136 44.6832C167.71 44.6832 170.778 41.7266 170.778 37.3197V23.2062H177.696V49.8154C177.696 59.8008 171.28 62.9805 163.08 62.9805H152.314Z" fill="black"/>
<path d="M182.159 50.4848V14.8943H189.634V50.4848H182.159Z" fill="black"/>
<path d="M194.264 50.4848V23.2619H201.181V27.5016C203.524 24.3219 207.206 22.6483 210.832 22.6483C219.534 22.6483 221.933 29.7887 221.933 36.3713V50.4848H215.016V36.3713C215.016 32.2433 213.342 29.0078 208.768 29.0078C204.193 29.0078 201.181 31.9643 201.181 36.3713V50.4848H194.264Z" fill="black"/>
<path d="M221.654 23.2062H228.738L236.102 45.52L243.466 23.2062H250.494L241.402 50.4848H230.802L221.654 23.2062Z" fill="black"/>
<path d="M249.268 36.8734C249.268 28.3941 254.344 22.6483 263.604 22.6483C272.195 22.6483 277.606 28.1152 277.606 36.5387V38.4353H256.352C256.91 42.4518 259.253 45.1853 263.883 45.1853C267.955 45.1853 269.74 43.6233 270.41 41.5035H277.439C276.714 47.0819 271.972 51.0984 264.05 51.0984C254.623 51.0984 249.268 45.6873 249.268 36.8734ZM270.243 33.5821C269.406 30.4581 267.732 28.3383 263.604 28.3383C259.476 28.3383 257.635 30.4581 256.798 33.5821H270.243Z" fill="black"/>
<path d="M292.277 45.241C294.843 45.241 297.632 44.2369 297.632 42.5076C297.632 40.6667 294.564 39.8857 291.05 39.1047C285.918 38.0448 279.447 36.8734 279.447 30.6813C279.447 24.4892 285.081 22.6483 291.775 22.6483C298.915 22.6483 304.382 25.1028 304.94 32.4664H298.134C297.744 29.5656 294.955 28.3383 291.496 28.3383C289.097 28.3383 286.643 29.0635 286.643 30.6813C286.643 32.299 288.818 32.8569 292.668 33.7494C297.744 34.8651 305.331 36.5387 305.331 42.4518C305.331 48.365 299.529 51.0426 292.444 51.0426C285.36 51.0426 277.996 48.365 277.94 40.9456H284.858C285.416 44.2369 288.93 45.241 292.277 45.241Z" fill="black"/>
<path d="M310.909 41.8382V29.1751H305.666V23.2062H310.965V14.6711H317.827V23.2062H329.039V29.1751H317.827V41.6151C317.827 43.958 319.333 44.4043 321.118 44.4043H328.091V50.5964H319.11C314.256 50.5964 310.909 48.2534 310.909 41.8382Z" fill="black"/>
<path d="M59.0089 0.903564H9.42758C4.22087 0.903564 0 5.12444 0 10.3311V59.9124C0 65.1191 4.22087 69.34 9.42758 69.34H59.0089C64.2156 69.34 68.4364 65.1191 68.4364 59.9124V10.3311C68.4364 5.12444 64.2156 0.903564 59.0089 0.903564Z" fill="url(#paint0_linear_133_707)"/>
<path d="M59.6895 50.7862C59.6895 51.344 59.3436 51.8572 58.8081 52.0357C53.1961 53.977 45.2524 55.9853 35.6463 56.0634H35.3116C35.2558 56.0634 35.1889 56.0745 35.1331 56.0634C27.4349 56.0745 20.7519 54.8026 15.43 53.2741C13.3214 52.6494 11.4135 52.0023 9.72886 51.3663C9.21564 51.1655 8.89209 50.6746 8.89209 50.1167V50.0163L8.93672 49.3581C8.93672 49.3581 8.93672 49.28 8.93672 49.2465C9.00366 48.2759 9.09291 47.1602 9.17101 45.9887L9.27143 44.661C9.3049 44.1478 9.33837 43.6457 9.37184 43.1437C9.40531 42.6528 9.44994 42.1619 9.48341 41.6821C9.52803 41.1243 9.5615 40.5664 9.60613 40.0309L9.69539 38.7702C9.70654 38.5359 9.72886 38.3127 9.74001 38.0896C9.77348 37.6545 9.80696 37.2528 9.82927 36.8735C9.82927 36.6727 9.86274 36.4942 9.8739 36.3157C9.88505 36.1371 9.89621 35.9698 9.90737 35.8136C9.94084 35.3227 9.97431 34.921 9.99662 34.6198C10.0078 34.3632 10.0301 34.1847 10.0301 34.0731C10.0413 34.0173 10.0413 33.9839 10.0413 33.9839L10.097 33.2363C10.1528 32.4219 10.9003 31.8529 11.6925 32.0091C12.6297 32.2099 13.5891 32.3884 14.5821 32.5669H14.6156C15.3073 32.7008 16.0214 32.8124 16.7465 32.924C20.2833 33.4818 24.177 33.9169 28.372 34.0954C30.4695 34.1958 32.6451 34.2293 34.8988 34.1958H35.0662C36.3827 34.1624 37.6769 34.1289 38.9376 34.0285C39.7521 33.9839 40.5665 33.9392 41.3587 33.8723H41.3921C41.5149 33.8723 41.6376 33.85 41.7603 33.8388C44.081 33.6603 46.3123 33.4037 48.4433 33.0802C50.8086 32.7454 53.0399 32.3438 55.1374 31.8975C55.9296 31.7302 56.6994 31.5628 57.4469 31.3843C58.2725 31.1946 59.0647 31.7971 59.087 32.645C59.0981 32.857 59.0981 33.0802 59.1093 33.3033C59.1093 33.5264 59.1205 33.7942 59.1316 34.0843C59.1428 34.419 59.1539 34.7648 59.1651 35.0996C59.1651 35.2 59.1651 35.3004 59.1651 35.4119C59.1762 35.6462 59.1874 35.8805 59.1874 36.1148C59.1874 36.2041 59.1874 36.3045 59.1986 36.4049C59.2097 36.628 59.2209 36.8512 59.2209 37.0743C59.232 37.3756 59.2432 37.6768 59.2543 37.9446C59.2543 38.0784 59.2543 38.2235 59.2655 38.3574C59.2767 38.547 59.2878 38.7144 59.2878 38.8594C59.2878 38.9822 59.299 39.116 59.299 39.2499V39.4173C59.299 39.6739 59.3101 39.9305 59.3213 40.1536C59.3324 40.4883 59.3436 40.8119 59.3436 41.1578C59.3436 41.2359 59.3548 41.3028 59.3548 41.3697C59.3548 41.3809 59.3548 41.4032 59.3659 41.4255V41.5817C59.3771 41.7044 59.3771 41.8272 59.3771 41.961C59.3882 42.1284 59.3882 42.3069 59.3994 42.4854V42.5858C59.4217 43.021 59.4328 43.4561 59.4552 43.9023V44.0028C59.4552 44.1924 59.4552 44.3709 59.4552 44.5606V44.6387L59.4886 45.4085C59.4998 45.9217 59.5221 46.435 59.5444 46.9482C59.5444 47.2383 59.5556 47.5283 59.5667 47.8073C59.5779 48.354 59.6002 48.9006 59.6114 49.4362C59.6225 49.8936 59.6448 50.3399 59.656 50.7862H59.6895Z" fill="#0B3C3D"/>
<path d="M28.3833 40.8342C37.0098 40.8342 44.003 33.841 44.003 25.2145C44.003 16.588 37.0098 9.59485 28.3833 9.59485C19.7568 9.59485 12.7637 16.588 12.7637 25.2145C12.7637 33.841 19.7568 40.8342 28.3833 40.8342Z" fill="#2BBCA0"/>
<path d="M28.3834 25.2145L30.8156 9.78455C38.38 10.9783 44.0142 17.5609 44.0142 25.2145C44.0142 33.783 36.9631 40.8342 28.3946 40.8342C21.2207 40.8342 14.917 35.8917 13.2212 28.9186L28.3946 25.2034L28.3834 25.2145Z" fill="#247C6D"/>
<path opacity="0.37" d="M28.3834 25.2145L30.8156 9.78455C38.38 10.9783 44.0142 17.5609 44.0142 25.2145C44.0142 33.783 36.9631 40.8342 28.3946 40.8342C19.8261 40.8342 12.7749 33.783 12.7749 25.2145C12.7749 18.989 16.4902 13.3324 22.2136 10.8668L28.4057 25.2145H28.3834Z" fill="#247C6D"/>
<path d="M41.7718 18.4088H35.0776V42.7309H41.7718V18.4088Z" fill="#C69458"/>
<path d="M48.4544 13.3101H41.7603V42.7197H48.4544V13.3101Z" fill="#DDA552"/>
<path d="M35.0774 25.2145H28.3833V44.7948H35.0774V25.2145Z" fill="#D1A55E"/>
<path d="M55.1487 21.2091H48.4546V45.8435H55.1487V21.2091Z" fill="#B7915A"/>
<path d="M59.7453 52.5377C59.7788 53.408 59.221 54.2336 58.3954 54.5125C52.7053 56.4092 44.7951 58.3282 35.2671 58.3616C35.2113 58.3616 35.1444 58.3728 35.0886 58.3728C32.1989 58.3728 29.4432 58.2054 26.866 57.893C26.3527 57.8261 25.7837 57.748 25.2036 57.6699C22.9387 57.3575 20.8078 56.9447 18.8107 56.4873C18.5875 56.4426 18.3867 56.3757 18.1524 56.3199C17.1594 56.0856 16.2 55.829 15.2962 55.5612C13.5223 55.048 11.8822 54.5125 10.4095 53.9658C10.4095 53.9658 10.3761 53.9435 10.3649 53.9435C10.2533 53.91 10.0302 53.8319 9.79589 53.7092C9.70664 53.6534 9.62854 53.5865 9.52813 53.5195C9.37193 53.3856 9.22689 53.2071 9.10416 53.0175C9.05954 52.9394 9.01491 52.8501 8.95912 52.7497C8.93681 52.6716 8.90334 52.5823 8.88103 52.5042C8.79177 52.2476 8.7583 52.0022 8.7583 51.7456L8.80293 51.2435C8.82524 50.9758 8.85871 50.6634 8.86987 50.3287L8.89218 50.072V50.0163L8.94797 49.2687V49.2464C9.01491 48.2758 9.10416 47.1824 9.18226 46.0109C9.19342 45.7766 9.21573 45.5423 9.22689 45.308C9.24921 45.0961 9.26036 44.8729 9.28267 44.6609C9.30499 44.382 9.3273 44.1031 9.33846 43.8242C9.34962 43.5899 9.37193 43.3667 9.38309 43.1436C9.41656 42.6527 9.46119 42.1618 9.49466 41.6821C9.53928 41.1242 9.57275 40.5664 9.61738 40.0308L9.70664 38.7701C9.8963 36.0367 10.0525 33.9838 10.0525 33.9838C12.0161 34.4189 14.1025 34.8317 16.3562 35.1776H16.3673C16.3673 35.1776 16.3785 35.1887 16.3896 35.1887C16.4677 35.1999 16.5458 35.2111 16.6239 35.2222C17.1037 35.3003 17.5723 35.3672 18.0408 35.423H18.0855C21.2652 35.8916 24.7015 36.2375 28.3833 36.3937C30.4362 36.4941 32.556 36.5276 34.7539 36.4941H34.8654C34.9324 36.4941 35.0105 36.4941 35.0774 36.4829C36.3716 36.4606 37.6658 36.416 38.9154 36.3267C39.0604 36.3156 39.2166 36.3156 39.3617 36.3044C39.384 36.3044 39.4063 36.3044 39.4175 36.2933C40.2096 36.2598 40.9906 36.204 41.7716 36.1371C44.0922 35.9586 46.3236 35.6908 48.4546 35.3784C50.8198 35.0437 53.0512 34.6421 55.1487 34.2069C56.5322 33.9169 57.8598 33.6156 59.1206 33.3032C59.1206 33.5264 59.1317 33.7941 59.1429 34.0842C59.1763 35.1441 59.221 36.5834 59.2768 37.9445C59.2768 38.0784 59.2767 38.2234 59.2879 38.3573C59.2991 38.7255 59.3102 39.0825 59.3214 39.4172C59.3214 39.6738 59.3325 39.9304 59.3437 40.1536C59.3548 40.5329 59.3548 40.8788 59.366 41.1577C59.366 41.2358 59.3772 41.3027 59.3772 41.3697C59.3772 41.3808 59.3772 41.4031 59.3883 41.4254C59.3883 41.4701 59.3883 41.5147 59.3995 41.5705V41.961C59.3995 42.1172 59.4106 42.2957 59.3995 42.463V42.4965C59.4218 43.0432 59.4441 43.6122 59.4664 44.1812C59.4776 44.3039 59.4776 44.4267 59.4887 44.5605V44.6386C59.511 45.375 59.5334 46.1225 59.5557 46.8589V46.9593C59.5668 47.2159 59.5891 47.4613 59.5891 47.7291V47.8184C59.6115 48.3539 59.6226 48.9006 59.6449 49.4361C59.6561 49.8935 59.6784 50.3398 59.6896 50.7861C59.7119 51.3774 59.7342 51.9576 59.7453 52.5377Z" fill="#0B3C3D"/>
<path d="M49.3585 45.2746C47.9304 45.5088 46.3238 45.1965 44.9962 45.9886C44.84 46.0778 44.4383 45.8436 44.0478 45.9663C43.0214 46.301 43.1441 48.0191 43.4677 48.722C43.6573 49.1348 43.8582 50.3621 47.5957 50.2282C51.5787 50.0832 52.3597 49.6369 57.5365 47.8741C58.6522 47.4948 59.2212 47.5506 59.4778 47.2158C59.6675 46.9704 59.3886 46.5464 59.4667 44.4378C59.5448 42.0948 59.3216 42.1171 59.0204 42.2064C58.6299 42.318 58.0609 42.6862 57.7262 42.9651C54.5911 45.6093 49.5705 45.2299 49.3585 45.2634V45.2746Z" fill="#0A2B2B"/>
<path d="M46.6199 46.6244L45.0249 48.0037L46.4041 49.5987L47.9992 48.2195L46.6199 46.6244Z" fill="#DBAF71"/>
<path opacity="0.26" d="M35.267 58.3617C35.2001 58.3617 35.1443 58.3728 35.0774 58.3728C32.1877 58.3728 29.4431 58.2055 26.8659 57.8819C26.3527 57.815 25.7837 57.7369 25.2035 57.6588C22.9387 57.3464 20.8077 56.9336 18.8106 56.4762C18.5875 56.4316 18.3866 56.3646 18.1523 56.2977C16.278 55.7956 13.7342 55.0369 10.4095 53.9436C10.3983 53.9436 10.376 53.9324 10.3648 53.9324C10.2533 53.8989 10.0301 53.8208 9.79582 53.6981C9.70657 53.6312 9.62847 53.5754 9.52806 53.5084C9.40533 53.4192 9.29376 53.2853 9.18219 53.1514C9.14872 53.1068 9.11525 53.0622 9.1041 53.0064C9.05947 52.9283 9.01484 52.8279 8.95906 52.7386C8.92559 52.6605 8.89211 52.5713 8.88096 52.482C8.7917 52.125 8.76939 51.7122 8.80286 51.2213C8.81402 50.9535 8.84749 50.6411 8.8698 50.3064C8.90327 49.9717 8.91443 49.6035 8.9479 49.2242C9.026 48.0639 9.13757 46.7139 9.22682 45.2858C9.29376 44.5606 9.33839 43.8354 9.38302 43.1214C9.41649 42.6305 9.46112 42.1507 9.49459 41.6598C9.77351 37.6099 10.0413 33.9615 10.0413 33.9615C12.0495 34.4971 14.7718 35.0884 18.0408 35.4119H18.0854C23.0279 36.1371 28.6287 36.5723 34.7538 36.483C36.115 38.3239 33.8947 40.4549 33.7051 45.9329C33.4373 53.1737 37.0521 56.2865 35.2782 58.3394L35.267 58.3617Z" fill="#247C6D"/>
<path d="M59.5779 46.9481C59.5779 46.9481 59.5667 46.9593 59.5556 46.9593C58.8081 47.3275 58.0494 47.6622 57.2684 47.9634C57.2015 47.9857 57.1345 48.0192 57.0676 48.0304C56.7106 48.1754 56.3535 48.3093 55.9965 48.432C55.8069 48.4989 55.606 48.5659 55.4052 48.6105C55.2825 48.6663 55.1598 48.6998 55.037 48.7332C54.9589 48.7667 54.892 48.789 54.8139 48.8113C51.7346 49.7374 48.5326 50.1502 45.2747 50.0498H45.1855C45.1186 50.0498 45.0516 50.0498 44.9958 50.0163C44.6723 49.9605 44.371 49.8378 44.1256 49.6258C44.1033 49.6146 44.081 49.5923 44.0586 49.57C43.9917 49.5365 43.9359 49.4808 43.8801 49.4138C43.8801 49.4027 43.8578 49.3803 43.8355 49.3692C43.7909 49.3134 43.7462 49.2465 43.7016 49.1907C43.6458 49.1126 43.6012 49.0345 43.5677 48.9452H43.5566C43.5566 48.9452 43.5343 48.9118 43.5454 48.9006C43.5008 48.8448 43.4785 48.789 43.4673 48.7221C43.4562 48.7109 43.445 48.6998 43.4562 48.6775C43.3669 48.4655 43.3334 48.2312 43.3446 47.9969C43.3892 46.8924 44.2929 46.0333 45.3975 46.0667C46.8479 46.1114 48.276 46.0333 49.6929 45.8436C51.3999 45.6205 53.0734 45.2188 54.7135 44.661C54.8585 44.6052 55.0036 44.5606 55.1486 44.4936C56.6213 43.9692 58.0606 43.2998 59.3994 42.4965C59.4105 42.4965 59.4217 42.4854 59.4217 42.4854C59.4105 42.3069 59.4105 42.1284 59.3994 41.961V41.5817H59.3882C58.0494 42.4073 56.6325 43.1102 55.1486 43.6457C54.9255 43.7461 54.6912 43.8242 54.4569 43.9023C52.5156 44.5829 50.5073 45.0068 48.4545 45.1742C47.4503 45.2746 46.4351 45.2969 45.4198 45.2634C43.8913 45.2188 42.5859 46.4349 42.5413 47.9634C42.4967 49.4696 43.6347 50.7303 45.1297 50.8419H45.2636C49.0235 50.9646 52.7276 50.3956 56.2643 49.1907C57.4135 48.8002 58.518 48.3427 59.5891 47.8184H59.6002C59.589 47.5395 59.5779 47.2494 59.5779 46.9593V46.9481Z" fill="white"/>
</g>
<defs>
<linearGradient id="paint0_linear_133_707" x1="-29.8336" y1="-14.0802" x2="91.2635" y2="78.9461" gradientUnits="userSpaceOnUse">
<stop offset="0.28" stop-color="#4C4C4C"/>
<stop offset="0.3" stop-color="#494949"/>
<stop offset="0.45" stop-color="#292929"/>
<stop offset="0.6" stop-color="#121212"/>
<stop offset="0.75" stop-color="#040404"/>
<stop offset="0.87"/>
</linearGradient>
<clipPath id="clip0_133_707">
<rect width="329.039" height="68.4364" fill="white" transform="translate(0 0.903564)"/>
</clipPath>
</defs>
</svg>
