<svg width="28" height="28" viewBox="0 0 28 28" fill="none" xmlns="http://www.w3.org/2000/svg">
<path d="M14.0001 25.9529C7.47264 25.9529 2.04714 20.5389 2.04714 13.9999C2.04714 7.47237 7.48464 2.04688 14.0121 2.04688C20.5506 2.04687 25.9526 7.47237 25.9526 13.9999C25.9526 20.5389 20.5391 25.9529 14.0001 25.9529ZM19.6136 17.7849C19.6136 17.3749 19.2851 17.0469 18.8986 17.0469C18.6641 17.0469 18.4766 17.1169 18.3126 17.3044L17.6681 17.9494L16.7656 18.9804L16.8361 16.9294V11.2579C16.8361 8.55088 15.1836 6.81638 12.6291 6.81638C10.1566 6.81638 8.46914 8.55087 8.46914 11.0819C8.46914 13.5899 10.0976 15.2419 12.5471 15.2419C13.0391 15.2419 13.4846 15.1134 13.7421 14.8669C13.8144 14.7948 13.8713 14.7089 13.9096 14.6143C13.948 14.5197 13.9668 14.4184 13.9651 14.3164C13.9651 13.9414 13.6721 13.6599 13.2736 13.6599C13.0511 13.6599 12.8636 13.7419 12.5001 13.7419C11.0236 13.7419 9.99214 12.6639 9.98064 11.0819C9.96914 9.45288 11.0356 8.36337 12.6291 8.36337C14.3281 8.36337 15.2776 9.44138 15.2776 11.3984V16.9179L15.3361 18.9804L14.4336 17.9374L13.7891 17.2924C13.6366 17.1174 13.4491 17.0469 13.2031 17.0469C12.8166 17.0469 12.5001 17.3749 12.5001 17.7849C12.5001 17.9609 12.5821 18.1484 12.7346 18.3239L15.2071 20.7849C15.4886 21.0429 15.7581 21.1834 16.0511 21.1834C16.3206 21.1834 16.6016 21.0429 16.8946 20.7849L19.3671 18.3359C19.5081 18.1719 19.6136 17.9609 19.6136 17.7849Z" fill="black"/>
</svg>
