<svg width="28" height="28" viewBox="0 0 28 28" fill="none" xmlns="http://www.w3.org/2000/svg">
<path d="M13.9999 2.04713C20.5274 2.04713 25.9529 7.46112 25.9529 14.0001C25.9529 20.5276 20.5154 25.9531 13.9879 25.9531C7.44936 25.9531 2.04736 20.5276 2.04736 14.0001C2.04736 7.46112 7.46086 2.04713 13.9999 2.04713ZM14.0004 4.03912C8.46836 4.03912 4.04986 8.46912 4.04986 14.0001C4.04986 19.5201 8.45636 23.9611 13.9879 23.9611C19.5074 23.9611 23.9484 19.5196 23.9604 14.0001C23.9719 8.46862 19.5189 4.03912 13.9994 4.03912M8.63286 10.3556C8.63286 10.1796 8.72636 9.98063 8.86686 9.82812L11.2459 7.46112C11.5274 7.21512 11.7969 7.08612 12.0544 7.08612C12.3359 7.08612 12.5934 7.20312 12.8629 7.46112L15.2419 9.84013C15.3944 10.0041 15.4764 10.1801 15.4764 10.3556C15.4764 10.7421 15.1714 11.0586 14.7964 11.0586C14.5624 11.0586 14.3864 10.9886 14.2344 10.8241L13.6134 10.2031L12.7344 9.19563L12.7929 11.1876V16.5076C12.7929 18.3946 13.7184 19.4376 15.3594 19.4376C16.8944 19.4376 17.9254 18.3826 17.9139 16.8126C17.9024 15.2776 16.9059 14.2346 15.4764 14.2346C15.1249 14.2346 14.9489 14.3166 14.7264 14.3166C14.3514 14.3166 14.0704 14.0466 14.0704 13.6956C14.0704 13.4726 14.1524 13.2971 14.2809 13.1681C14.5274 12.9336 14.9609 12.8046 15.4294 12.8046C17.7969 12.8046 19.3554 14.3986 19.3554 16.8126C19.3554 19.2501 17.7384 20.9141 15.3594 20.9141C12.8984 20.9141 11.3044 19.2501 11.3044 16.6366V11.1761L11.3744 9.19563L10.4959 10.1916L9.87486 10.8126C9.80526 10.8928 9.71866 10.9565 9.62136 10.9991C9.52406 11.0416 9.41851 11.062 9.31236 11.0586C8.93736 11.0586 8.63236 10.7421 8.63236 10.3556" fill="black"/>
</svg>
