<svg width="1050" height="218" viewBox="0 0 1050 218" fill="none" xmlns="http://www.w3.org/2000/svg">
<g clip-path="url(#clip0_267_957)">
<path d="M297.889 161.563V48.1919H321.743V141.128H379.776V161.563H297.889Z" fill="black"/>
<path d="M382.802 118.205C382.802 91.1945 399.001 72.8916 428.552 72.8916C455.966 72.8916 473.233 90.306 473.233 117.138V123.18H405.41C407.19 135.974 414.667 144.682 429.442 144.682C442.437 144.682 448.133 139.706 450.269 132.954H472.699C470.385 150.723 455.254 163.518 429.976 163.518C399.891 163.518 382.802 146.281 382.802 118.205ZM449.735 107.72C447.065 97.7693 441.725 91.0168 428.552 91.0168C415.379 91.0168 409.504 97.7693 406.834 107.72H449.735Z" fill="black"/>
<path d="M486.05 201.368V181.288H520.763C532.334 181.288 544.973 179.155 544.973 159.431V147.881C537.497 158.187 525.748 163.34 513.999 163.34C486.228 163.34 478.574 140.595 478.574 119.804V74.6689H500.648V119.627C500.648 132.776 505.988 143.083 520.585 143.083C535.182 143.083 544.973 133.665 544.973 119.627V74.6689H567.047V159.431C567.047 191.239 546.575 201.368 520.407 201.368H486.05Z" fill="black"/>
<path d="M581.288 161.563V48.1919H605.142V161.563H581.288Z" fill="black"/>
<path d="M619.917 161.563V74.8463H641.991V88.3513C649.468 78.2225 661.217 72.8916 672.788 72.8916C700.558 72.8916 708.212 95.637 708.212 116.605V161.563H686.139V116.605C686.139 103.456 680.798 93.1492 666.201 93.1492C651.604 93.1492 641.991 102.567 641.991 116.605V161.563H619.917Z" fill="black"/>
<path d="M707.322 74.6689H729.93L753.428 145.748L776.926 74.6689H799.356L770.339 161.563H736.517L707.322 74.6689Z" fill="black"/>
<path d="M795.439 118.205C795.439 91.1945 811.639 72.8916 841.189 72.8916C868.603 72.8916 885.871 90.306 885.871 117.138V123.18H818.047C819.827 135.974 827.304 144.682 842.079 144.682C855.074 144.682 860.771 139.706 862.907 132.954H885.337C883.023 150.723 867.891 163.518 842.613 163.518C812.529 163.518 795.439 146.281 795.439 118.205ZM862.373 107.72C859.703 97.7693 854.362 91.0168 841.189 91.0168C828.016 91.0168 822.142 97.7693 819.471 107.72H862.373Z" fill="black"/>
<path d="M932.689 144.859C940.877 144.859 949.778 141.661 949.778 136.152C949.778 130.288 939.987 127.8 928.772 125.313C912.395 121.936 891.745 118.205 891.745 98.4801C891.745 78.7556 909.725 72.8916 931.086 72.8916C953.872 72.8916 971.318 80.7103 973.098 104.166H951.38C950.134 94.9262 941.233 91.0168 930.196 91.0168C922.542 91.0168 914.709 93.3269 914.709 98.4801C914.709 103.633 921.652 105.41 933.935 108.254C950.134 111.807 974.344 117.138 974.344 135.974C974.344 154.81 955.83 163.34 933.223 163.34C910.615 163.34 887.117 154.81 886.939 131.177H909.013C910.793 141.661 922.008 144.859 932.689 144.859Z" fill="black"/>
<path d="M992.145 134.02V93.6825H975.412V74.6688H992.323V47.481H1014.22V74.6688H1050V93.6825H1014.22V133.309C1014.22 140.772 1019.03 142.194 1024.72 142.194H1046.97V161.919H1018.31C1002.83 161.919 992.145 154.455 992.145 134.02Z" fill="black"/>
<path d="M188.304 0H30.0844C13.4693 0 0 13.4453 0 30.031V187.969C0 204.555 13.4693 218 30.0844 218H188.304C204.919 218 218.388 204.555 218.388 187.969V30.031C218.388 13.4453 204.919 0 188.304 0Z" fill="url(#paint0_linear_267_957)"/>
<path d="M199.59 163.127C161.423 189 58.4597 184.024 19.0474 155.06C20.4715 135.548 22.1804 110.955 23.6045 91.4082C141.806 102.106 197.596 86.4326 197.596 86.4326C197.596 86.4326 198.13 118.063 199.59 163.127Z" fill="url(#paint1_linear_267_957)"/>
<path d="M88.1527 133.558C119.004 133.558 144.014 108.593 144.014 77.7963C144.014 47 119.004 22.0347 88.1527 22.0347C57.3015 22.0347 32.2917 47 32.2917 77.7963C32.2917 108.593 57.3015 133.558 88.1527 133.558Z" fill="#2BBCA0"/>
<path d="M88.1526 77.7964L96.8397 22.71C123.898 26.9747 144.049 50.4664 144.049 77.7964C144.049 108.396 118.842 133.558 88.1882 133.558C62.5185 133.558 40.0175 115.895 33.8938 91.0171L88.1882 77.7608L88.1526 77.7964Z" fill="#247C6D"/>
<path opacity="0.37" d="M88.1527 77.7964L96.8398 22.71C123.898 26.9747 144.049 50.4664 144.049 77.7964C144.049 108.396 118.842 133.558 88.1883 133.558C57.5342 133.558 32.3274 108.396 32.3274 77.7964C32.3274 55.5841 45.6429 35.3621 66.0789 26.5838L88.2239 77.7964H88.1527Z" fill="#247C6D"/>
<path d="M136.003 53.4873H112.078V140.311H136.003V53.4873Z" fill="#CE9E65"/>
<path d="M159.928 35.291H136.003V140.311H159.928V35.291Z" fill="#D9AE79"/>
<path d="M112.078 77.7964H88.1526V147.703H112.078V77.7964Z" fill="#C69458"/>
<path d="M183.853 63.4741H159.928V151.399H183.853V63.4741Z" fill="#E5BD8C"/>
<path d="M199.981 166.29C200.159 171.905 197.809 174.215 190.902 178.125C173.315 188.147 145.616 192.163 112.754 192.092C89.4343 192.056 45.5359 187.827 23.8894 175.53C20.6139 173.682 18.4777 170.271 18.4421 166.503C18.2641 147.81 22.216 119.733 22.5364 105.055C29.5858 106.619 37.0624 108.112 45.1087 109.32C71.1344 113.443 100.329 115.22 127.529 113.301C151.454 111.986 175.308 108.183 197.987 102.639C198.272 111.524 199.34 147.276 199.91 166.255L199.981 166.29Z" fill="#007A63"/>
<path opacity="0.26" d="M112.79 192.127C112.541 192.127 112.327 192.163 112.113 192.163C106.773 192.163 98.0858 191.523 90.6092 190.883C83.6311 190.315 77.7922 189.711 76.7597 189.64C66.7553 188.787 56.9645 186.974 48.4198 184.664C36.7421 181.572 27.2361 177.663 22.3229 174.5C21.0412 173.647 20.258 172.154 19.6171 171.159C18.2286 168.849 18.371 165.224 18.4422 164.016C18.4422 162.701 18.5134 160.781 18.549 159.395C18.6202 155.237 19.0119 150.51 19.3323 145.428C19.5815 142.834 19.9731 140.382 20.1868 137.787C20.258 136.046 20.4716 134.34 20.5784 132.563C21.5753 118.098 22.5365 105.091 22.5365 105.091C24.2455 105.517 26.0968 106.015 28.0906 106.441L28.4466 106.548C28.4466 106.548 28.7314 106.583 28.8383 106.619C34.0007 107.792 40.0176 108.929 46.7465 109.782C48.135 109.924 49.6303 110.102 51.09 110.244H51.3037C56.3237 110.955 61.5573 111.595 66.9333 112.163C67.1825 112.163 67.3962 112.199 67.681 112.234C81.0321 113.549 95.4868 114.26 110.867 114.011C113.965 121.972 117.347 133.167 118.379 146.885C119.91 166.539 115.994 182.461 112.754 192.092L112.79 192.127Z" fill="#03D8A5"/>
<path opacity="0.26" d="M90.5736 190.883C83.5954 190.315 77.7566 189.711 76.7241 189.64C66.7197 188.787 56.9289 186.974 48.3842 184.664C36.7064 181.572 27.2005 177.663 22.2873 174.5C21.0056 173.647 20.2223 172.154 19.5815 171.159C18.193 168.849 18.3354 165.224 18.4066 164.016C18.4066 162.701 18.4778 160.781 18.5134 159.395C18.5846 155.237 18.9762 150.51 19.2966 145.428C19.5459 142.834 19.9375 140.382 20.1511 137.787C20.2223 136.046 20.4359 134.34 20.5427 132.563C21.5396 118.098 22.5009 105.091 22.5009 105.091C24.2098 105.517 26.0612 106.015 28.0549 106.441L28.411 106.548C28.411 106.548 28.6958 106.583 28.8026 106.619C34.5347 107.472 40.4447 108.396 46.5684 109.32C53.0838 110.315 59.8127 111.31 66.9333 112.163C67.1825 112.163 67.3961 112.199 67.6809 112.234C74.1963 112.981 81.032 113.585 88.295 114.011C91.3925 121.972 94.7747 133.167 95.8072 146.885C97.2313 165.721 93.7066 181.146 90.538 190.848L90.5736 190.883Z" fill="#03D8A5"/>
<mask id="mask0_267_957" style="mask-type:luminance" maskUnits="userSpaceOnUse" x="134" y="123" width="66" height="41">
<path d="M199.874 163.127L134.401 163.624V124.637L198.664 123.678L199.874 163.127Z" fill="white"/>
</mask>
<g mask="url(#mask0_267_957)">
<path d="M199.625 144.966V145.428C199.59 145.641 199.554 145.748 199.518 145.819C198.735 147.134 196.456 147.205 192.469 148.556C173.955 154.846 171.178 156.481 156.902 156.943C142.803 157.405 142.767 153.069 142.126 151.576C140.952 149.053 140.524 142.94 144.191 141.732C145.58 141.306 147.04 142.123 147.574 141.803C152.273 138.96 158.077 140.097 163.168 139.244C163.915 139.138 181.824 140.488 193.11 131.035C194.285 130.039 197.204 128.724 198.664 128.334C198.806 128.298 198.949 128.582 199.055 129.044V129.329C199.127 131.283 199.198 133.309 199.305 135.335C199.34 135.761 199.34 136.223 199.376 136.685V136.97C199.447 139.6 199.518 142.265 199.625 144.895V144.966Z" fill="#0A2B2B"/>
<path d="M183.889 133.522C183.105 133.878 182.251 134.162 181.432 134.446C174.489 136.863 167.298 138.391 159.964 138.995C156.368 139.351 152.736 139.422 149.105 139.315C143.622 139.173 138.958 143.509 138.815 148.946C138.673 154.313 142.732 158.826 148.072 159.217H148.535C161.993 159.644 175.237 157.618 187.876 153.318C191.97 151.932 195.922 150.297 199.768 148.413C199.768 148.413 199.803 148.413 199.803 148.378C199.768 147.383 199.732 146.352 199.732 145.321C199.696 145.321 199.696 145.357 199.661 145.357C196.99 146.672 194.285 147.88 191.472 148.946C191.223 149.017 191.009 149.16 190.76 149.195C189.478 149.728 188.197 150.19 186.915 150.617C186.238 150.866 185.526 151.079 184.814 151.256C184.387 151.47 183.924 151.576 183.497 151.683C183.212 151.79 182.963 151.896 182.714 151.967C171.712 155.272 160.248 156.73 148.606 156.374H148.286C148.037 156.374 147.823 156.339 147.609 156.268C146.47 156.054 145.366 155.628 144.512 154.882C144.441 154.846 144.369 154.775 144.263 154.668C144.013 154.562 143.835 154.348 143.622 154.1C143.586 154.064 143.551 153.993 143.479 153.958C143.337 153.744 143.159 153.531 143.017 153.318C142.803 153.033 142.661 152.749 142.554 152.429H142.518C142.518 152.429 142.447 152.323 142.482 152.287C142.34 152.074 142.233 151.896 142.198 151.647C142.162 151.612 142.126 151.576 142.162 151.505C141.842 150.759 141.735 149.906 141.77 149.089C141.913 145.144 145.153 142.087 149.105 142.194C154.303 142.336 159.394 142.087 164.449 141.412C170.538 140.63 176.554 139.173 182.393 137.183C182.927 136.97 183.426 136.827 183.96 136.579C189.229 134.695 194.391 132.314 199.162 129.435C199.198 129.435 199.233 129.4 199.233 129.4C199.198 128.76 199.198 128.12 199.162 127.516V126.166H199.127C194.32 129.115 189.265 131.639 183.96 133.522" fill="#22594F"/>
<path d="M183.889 133.522C183.105 133.878 182.251 134.162 181.432 134.446C174.489 136.863 167.298 138.391 159.964 138.995C156.368 139.351 152.736 139.422 149.105 139.315C143.622 139.173 138.958 143.509 138.815 148.946C138.673 154.313 142.732 158.826 148.072 159.217H148.535C161.993 159.644 175.237 157.618 187.876 153.318C191.97 151.932 195.922 150.297 199.768 148.413C199.768 148.413 199.803 148.413 199.803 148.378C199.768 147.383 199.732 146.352 199.732 145.321C199.696 145.321 199.696 145.357 199.661 145.357C196.99 146.672 194.285 147.88 191.472 148.946C191.223 149.017 191.009 149.16 190.76 149.195C189.478 149.728 188.197 150.19 186.915 150.617C186.238 150.866 185.526 151.079 184.814 151.256C184.387 151.47 183.924 151.576 183.497 151.683C183.212 151.79 182.963 151.896 182.714 151.967C171.712 155.272 160.248 156.73 148.606 156.374H148.286C148.037 156.374 147.823 156.339 147.609 156.268C146.47 156.054 145.366 155.628 144.512 154.882C144.441 154.846 144.369 154.775 144.263 154.668C144.013 154.562 143.835 154.348 143.622 154.1C143.586 154.064 143.551 153.993 143.479 153.958C143.337 153.744 143.159 153.531 143.017 153.318C142.803 153.033 142.661 152.749 142.554 152.429H142.518C142.518 152.429 142.447 152.323 142.482 152.287C142.34 152.074 142.233 151.896 142.198 151.647C142.162 151.612 142.126 151.576 142.162 151.505C141.842 150.759 141.735 149.906 141.77 149.089C141.913 145.144 145.153 142.087 149.105 142.194C154.303 142.336 159.394 142.087 164.449 141.412C170.538 140.63 176.554 139.173 182.393 137.183C182.927 136.97 183.426 136.827 183.96 136.579C189.229 134.695 194.391 132.314 199.162 129.435C199.198 129.435 199.233 129.4 199.233 129.4C199.198 128.76 199.198 128.12 199.162 127.516V126.166H199.127C194.32 129.115 189.265 131.639 183.96 133.522" stroke="#22594F" stroke-width="1.12" stroke-miterlimit="10"/>
<path d="M143.722 142.076L143.695 142.099C139.753 145.501 139.321 151.449 142.729 155.383L142.752 155.41C146.161 159.345 152.119 159.776 156.06 156.374L156.087 156.351C160.029 152.949 160.461 147.001 157.053 143.067L157.029 143.04C153.621 139.105 147.663 138.674 143.722 142.076Z" fill="#E5BD8C"/>
</g>
<g style="mix-blend-mode:luminosity" opacity="0.5">
<path d="M14.1343 177.485C35.0688 185.304 74.0539 196.676 123.043 191.985C160.177 188.431 189.122 176.987 207.315 168.067" stroke="black" stroke-width="7" stroke-miterlimit="10"/>
</g>
</g>
<defs>
<linearGradient id="paint0_linear_267_957" x1="-19.8664" y1="-6.32605" x2="142.617" y2="139.389" gradientUnits="userSpaceOnUse">
<stop stop-color="#424242"/>
<stop offset="1"/>
</linearGradient>
<linearGradient id="paint1_linear_267_957" x1="-4.66415" y1="54.5536" x2="206.09" y2="178.879" gradientUnits="userSpaceOnUse">
<stop stop-color="#397267"/>
<stop offset="1" stop-color="#06332A"/>
</linearGradient>
<clipPath id="clip0_267_957">
<rect width="1050" height="218" fill="white"/>
</clipPath>
</defs>
</svg>
